# xmcd
# 
# Track frame offsets:
#     182
#     9992
#     34702
#     45145
#     58850
#     70802
#     88110
#     97922
#     118780
#     128682
#     144895
#     162507
#     174617
#     185220
#     197705
#     209487
#     222935
# 
# Disc length: 3175
# 
# Revision: 6
# Processed by: cddbd v1.5.2PL0 Copyright (c) Steve Scherf et al.
# Submitted via: fre:ac v1.0.27
# 
DISCID=f00c6511
DTITLE=John Lee Hooker - 51 Great Blues Hits disk 1
DYEAR=1990
DGENRE=Blues
TTITLE0=Dusty Road
TTITLE1=My First Wife Left Me
TTITLE2=Maudie
TTITLE3=Time Is Marching
TTITLE4=Hug And Squeeze
TTITLE5=Blues Before Sunrise
TTITLE6=Run On
TTITLE7=That's My Story
TTITLE8=I Wanna Walk
TTITLE9=Wednesday Evenin' Blues
TTITLE10=Your're Leavin ' Me Baby
TTITLE11=I'm A Stranger
TTITLE12=Old Time Shimmy
TTITLE13=No More Doggin'
TTITLE14=Solid Sender
TTITLE15=The Syndicator
TTITLE16=Tupelo
EXTD=
EXTT0=
EXTT1=
EXTT2=
EXTT3=
EXTT4=
EXTT5=
EXTT6=
EXTT7=
EXTT8=
EXTT9=
EXTT10=
EXTT11=
EXTT12=
EXTT13=
EXTT14=
EXTT15=
EXTT16=
PLAYORDER=
